<?xml version="1.0" encoding="UTF-8"?>
<svg xmlns="http://www.w3.org/2000/svg" version="1.1" viewBox="0 0 200 60">
  <defs>
    <!-- Definición del degradado lineal -->
    <!-- Puedes ajustar x1, y1, x2, y2 aquí si prefieres otra dirección en el archivo estático -->
    <linearGradient id="logo-gradient-static" x1="0%" y1="50%" x2="100%" y2="50%">
      <!-- Colores FIJOS del degradado (usando los del modo oscuro que ajustamos para que se parezca a la imagen) -->
      <stop offset="0%" stop-color="#6E56FF" />
      <stop offset="100%" stop-color="#14BFB0" />
    </linearGradient>

    <!-- Las reglas de estilo originales (cls-1, cls-2) ya no controlan el fill si usas el degradado en el path-->
    <!-- Puedes eliminarlas si no las necesitas para stroke u otras propiedades -->
    <style>
      .cls-1 { fill: #fff; }
      .cls-2 { fill: #4b3b90; }
    </style>
  </defs>

  <!-- Este es el contenido principal del SVG, replicando la estructura que renderiza tu componente -->
  <g>
    <g id="Capa_1">
      <g>
        <!-- Path data COMBINADA de los dos paths originales del SVG de AI -->
        <!-- Este es el D del <path class="cls-2"> -->
        <!-- Este es el D del <path class="cls-1"> -->
        <!-- Se combinan para formar un solo PATH -->
        <path
          d="M96.04,47.97c-1.36.96-2.52,1.99-3.86,2.68-2.84,1.46-5.79,2.72-8.67,4.09-5.49,2.61-11.21,4.35-17.29,4.93-5.21.5-10.19-.33-15.03-2.26-2.47-.98-4.59-2.39-6.52-4.23-2.83-2.69-5.15-5.62-6.57-9.31-1.2-3.12-1.58-6.31-1.4-9.57.13-2.28.53-4.55.95-6.8,1.07-5.62,3.86-10.35,8.38-13.76,2.69-2.03,5.89-3.46,8.99-4.87,7.26-3.31,14.84-5.71,22.66-7.34C83.97.21,90.37-.23,96.78.11c6.64.35,12.96,2.11,18.85,5.2,4.3,2.25,8.45,4.78,12.69,7.13.91.5,1.93.96,2.95,1.11,5.65.8,11.33,1.41,16.97,2.25,4.25.63,8.34,1.83,11.99,4.23,4.7,3.07,7.18,7.47,7.82,12.96.65,5.57-.66,10.77-3.67,15.4-4.3,6.62-10.65,10.25-18.4,11.2-9.77,1.2-19.28-.17-28.43-3.8-6.51-2.58-12.27-6.45-17.76-10.71-4.59-3.56-9.11-7.21-13.64-10.84-3.08-2.47-6.07-5.04-9.22-7.43-3.12-2.36-6.48-4.36-10.42-5.07-6.06-1.11-12.77,2.17-15.35,7.21-4.61,9.02,1.87,17.65,9.94,19.05,3.94.69,7.67-.27,11.05-2.34,3.41-2.09,6.74-4.31,10.08-6.5,1.51-.99,2.03-1.14,3.46-.05,3.22,2.46,6.36,5.02,9.51,7.57.33.27.49.76.83,1.31ZM116.92,15.58c-5.76,3.99-7.74,5.91-13.16,9.62.46.68,1.14.97,1.58,1.35,2.7,2.33,5.41,4.64,8.19,6.88,2.07,1.67,3.03,1.39,5.22-.21,4.94-3.59,9.62-7.66,15.52-9.69,4.91-1.69,9.9-1.85,14.35,1.03,6.19,4.01,8.73,10.13,5.8,17.17-2.33,5.59-7.98,9.71-14.52,9.95-4.24.15-7.85-1.51-11.35-3.39-4.17-2.25-8.11-4.9-11.78-7.95-4.71-3.91-9.61-7.6-14.38-11.43-3.91-3.13-7.62-6.53-11.67-9.46-5.87-4.25-18.82-8.66-18.4-8.79,1.68-.54,1.8-.67,3.52-1.04,3.27-.71,7.13-1.7,10.47-1.88,13.4-.7,18.06.52,25.9,4.86,4.06,2.25,3.9,2.26,4.73,2.98Z"
          fill-rule="evenodd"
          fill="url(#logo-gradient-static)"
          shape-rendering="geometricPrecision"
        />
      </g>
    </g>
  </g>
</svg>